<?xml version="1.0" encoding="UTF-8" standalone="no"?>
<!-- Created with Inkscape (http://www.inkscape.org/) -->

<svg
   width="75.938751mm"
   height="14.294151mm"
   viewBox="0 0 75.938751 14.294151"
   version="1.1"
   id="svg5"
   xmlns="http://www.w3.org/2000/svg"
   xmlns:svg="http://www.w3.org/2000/svg">
  <defs
     id="defs2" />
  <g
     id="layer1"
     transform="translate(-37.832082,-123.82167)">
    <path
       id="path1129"
       style="fill:#008fe4;fill-opacity:1;stroke:none;stroke-width:1.365;stroke-linecap:square;stroke-linejoin:miter;stroke-miterlimit:5;stroke-dasharray:none;stroke-opacity:1;paint-order:fill markers stroke"
       d="m 82.020833,124.35417 v 13.22916 H 111.125 l 2.64583,-2.64583 V 127 l -2.64583,-2.64583 z m 15.493628,2.62671 3.471109,7.52461 h -6.942731 z m -12.996622,0.15865 h 3.090767 c 0.465662,0 0.83588,0.0708 1.111043,0.21187 0.33161,0.16933 0.585839,0.40233 0.762228,0.69867 0.183441,0.29631 0.274918,0.62788 0.274918,0.99477 0,0.34572 -0.09148,0.6664 -0.274918,0.96273 -0.183444,0.28927 -0.434395,0.519 -0.751892,0.68833 0.380996,0.13406 0.702193,0.36654 0.963248,0.69815 0.261055,0.33161 0.391708,0.70562 0.391708,1.12189 0,0.36689 -0.09527,0.70551 -0.285771,1.01596 -0.183444,0.30339 -0.430597,0.54347 -0.74104,0.71985 -0.155222,0.0847 -0.327816,0.14836 -0.518315,0.19069 -0.190499,0.0423 -0.444728,0.0631 -0.762227,0.0631 h -3.259749 z m 20.277831,0 h 6.28644 l -2.94194,4.35012 v 3.01584 h -0.39171 v -3.01584 z m -7.281209,0.77256 -2.857706,6.2022 h 5.714895 z" />
    <path
       style="fill:none;fill-opacity:1;stroke:#000000;stroke-width:1.065;stroke-linecap:square;stroke-linejoin:miter;stroke-miterlimit:5;stroke-dasharray:none;stroke-opacity:1;paint-order:fill markers stroke"
       d="m 38.364583,134.9375 2.645833,2.64583 H 82.020833 V 124.35417 H 41.010416 L 38.364583,127 Z"
       id="path509" />
    <g
       aria-label="tech"
       id="text244"
       style="font-size:10.5833px;line-height:0;letter-spacing:2.59292px;word-spacing:0px;stroke-width:0.264583">
      <path
         d="m 47.73035,127.13975 v 0.39158 h -2.783408 v 6.97439 h -0.380999 v -6.97439 h -2.783407 v -0.39158 z"
         style="font-family:'Major Mono Display';-inkscape-font-specification:'Major Mono Display, Normal'"
         id="path2772" />
      <path
         d="m 52.64101,127.13975 h 5.185817 v 0.39158 h -4.794234 v 2.98449 h 4.16982 v 0.39158 h -4.16982 v 3.20674 h 4.794234 v 0.39158 H 52.64101 Z"
         style="font-family:'Major Mono Display';-inkscape-font-specification:'Major Mono Display, Normal'"
         id="path2774" />
      <path
         d="m 63.076153,131.69056 q 0,0.6985 0.349249,1.29117 0.359832,0.59266 0.952497,0.94191 0.603248,0.34925 1.301746,0.34925 0.719664,0 1.301746,-0.28575 0.582081,-0.28575 0.910164,-0.79375 0.338665,-0.508 0.349249,-1.14299 h 0.380998 q 0,0.73024 -0.391582,1.33349 -0.380998,0.59267 -1.05833,0.94192 -0.666748,0.33866 -1.492245,0.33866 -0.804331,0 -1.492245,-0.40216 -0.687915,-0.40217 -1.09008,-1.0795 -0.402165,-0.68791 -0.402165,-1.49225 v -1.73566 q 0,-0.80433 0.391582,-1.48166 0.402165,-0.68791 1.079496,-1.09008 0.687915,-0.40216 1.492245,-0.40216 0.814915,0 1.481662,0.34924 0.677332,0.33867 1.068914,0.94192 0.391582,0.59266 0.391582,1.32291 h -0.380999 q -0.01058,-0.635 -0.349249,-1.143 -0.338665,-0.50799 -0.920747,-0.79374 -0.571498,-0.28575 -1.291163,-0.28575 -0.698497,0 -1.291162,0.34925 -0.592665,0.34925 -0.941914,0.94191 -0.349249,0.59267 -0.349249,1.29116 z"
         style="font-family:'Major Mono Display';-inkscape-font-specification:'Major Mono Display, Normal'"
         id="path2776" />
      <path
         d="m 73.193796,134.50572 v -7.36597 h 0.391582 v 3.4819 h 4.889485 v -3.4819 h 0.391582 v 7.36597 h -0.391582 v -3.49249 h -4.889485 v 3.49249 z"
         style="font-family:'Major Mono Display';-inkscape-font-specification:'Major Mono Display, Normal'"
         id="path2778" />
    </g>
  </g>
</svg>
